<svg width="24" height="25" viewBox="0 0 24 25" xmlns="http://www.w3.org/2000/svg">
<path d="M12.2362 24.5001C12.1567 24.5001 12.0773 24.5001 11.9973 24.4997C10.116 24.5043 8.37781 24.4565 6.68738 24.3536C5.13757 24.2593 3.7229 23.7237 2.59607 22.8049C1.50879 21.9183 0.766296 20.7195 0.389282 19.2422C0.0611573 17.956 0.0437622 16.6935 0.0270996 15.4724C0.0150146 14.5962 0.00256348 13.558 0 12.5023C0.00256348 11.4421 0.0150146 10.4039 0.0270996 9.5277C0.0437622 8.30676 0.0611573 7.04424 0.389282 5.75793C0.766296 4.28063 1.50879 3.08184 2.59607 2.19525C3.7229 1.27642 5.13757 0.740838 6.68756 0.646539C8.37799 0.543817 10.1166 0.495843 12.0018 0.500421C13.8836 0.496393 15.6213 0.543817 17.3117 0.646539C18.8615 0.740838 20.2762 1.27642 21.403 2.19525C22.4905 3.08184 23.2328 4.28063 23.6098 5.75793C23.9379 7.04406 23.9553 8.30676 23.972 9.5277C23.9841 10.4039 23.9967 11.4421 23.9991 12.4979V12.5023C23.9967 13.558 23.9841 14.5962 23.972 15.4724C23.9553 16.6934 23.9381 17.9559 23.6098 19.2422C23.2328 20.7195 22.4905 21.9183 21.403 22.8049C20.2762 23.7237 18.8615 24.2593 17.3117 24.3536C15.6929 24.4521 14.0299 24.5001 12.2362 24.5001ZM11.9973 22.6247C13.8479 22.6291 15.5471 22.5824 17.1978 22.482C18.3697 22.4108 19.3857 22.0305 20.2181 21.3517C20.9875 20.7242 21.5175 19.8585 21.793 18.7786C22.0662 17.7079 22.082 16.5584 22.0972 15.4468C22.1091 14.5765 22.1215 13.5456 22.1241 12.5001C22.1215 11.4543 22.1091 10.4236 22.0972 9.55334C22.082 8.44171 22.0662 7.29217 21.793 6.22137C21.5175 5.14141 20.9875 4.27569 20.2181 3.64819C19.3857 2.9696 18.3697 2.58929 17.1978 2.51806C15.5471 2.41754 13.8479 2.37121 12.0016 2.37524C10.1514 2.37084 8.45197 2.41754 6.80127 2.51806C5.62939 2.58929 4.61334 2.9696 3.78094 3.64819C3.01154 4.27569 2.48163 5.14141 2.20605 6.22137C1.93286 7.29217 1.91711 8.44152 1.90192 9.55334C1.89001 10.4244 1.87756 11.4558 1.875 12.5023C1.87756 13.5441 1.89001 14.5757 1.90192 15.4468C1.91711 16.5584 1.93286 17.7079 2.20605 18.7786C2.48163 19.8585 3.01154 20.7242 3.78094 21.3517C4.61334 22.0303 5.62939 22.4106 6.80127 22.4819C8.45197 22.5824 10.1517 22.6293 11.9973 22.6247ZM11.9526 18.3594C8.72186 18.3594 6.0932 15.731 6.0932 12.5001C6.0932 9.26916 8.72186 6.64068 11.9526 6.64068C15.1835 6.64068 17.812 9.26916 17.812 12.5001C17.812 15.731 15.1835 18.3594 11.9526 18.3594ZM11.9526 8.51568C9.75568 8.51568 7.9682 10.3032 7.9682 12.5001C7.9682 14.697 9.75568 16.4844 11.9526 16.4844C14.1497 16.4844 15.937 14.697 15.937 12.5001C15.937 10.3032 14.1497 8.51568 11.9526 8.51568ZM18.4682 4.76568C17.6917 4.76568 17.062 5.3952 17.062 6.17193C17.062 6.94866 17.6917 7.57818 18.4682 7.57818C19.2449 7.57818 19.8745 6.94866 19.8745 6.17193C19.8745 5.3952 19.2449 4.76568 18.4682 4.76568Z"/>
</svg>
