<svg width="17" height="32" viewBox="0 0 17 32" fill="none" xmlns="http://www.w3.org/2000/svg">
<path d="M9.47316 0.211494L16.7458 7.48405C17.0508 7.7453 17.0864 8.20442 16.8251 8.50947C16.5638 8.81453 16.1047 8.85009 15.7997 8.58879C15.7712 8.56441 15.7447 8.53791 15.7204 8.50947L9.68409 2.48052L9.68409 31.2728C9.68409 31.6744 9.35847 32 8.95679 32C8.55511 32 8.22955 31.6744 8.22955 31.2728L8.22955 2.48052L2.2006 8.50947C1.93935 8.81453 1.48023 8.85009 1.17517 8.58878C0.870117 8.32748 0.834557 7.86842 1.09586 7.56337C1.12024 7.53493 1.14674 7.50837 1.17518 7.48405L8.4478 0.211431C8.73136 -0.0704995 9.18947 -0.0704995 9.47316 0.211494Z" fill="white"/>
</svg>
