<svg width="24" height="25" viewBox="0 0 24 25" xmlns="http://www.w3.org/2000/svg">
<g clip-path="url(#clip0_25_132)">
<path d="M19.3207 23.2337C19.1332 23.2337 18.947 23.1782 18.7873 23.0699L12.7527 18.9766L9.51614 21.3055C9.2623 21.488 8.93512 21.534 8.64037 21.4286C8.34599 21.323 8.12243 21.0791 8.04262 20.7768L6.41749 14.618L0.610684 12.3976C0.245123 12.2578 0.00268211 11.908 2.21043e-05 11.5166C-0.00263791 11.1252 0.23499 10.7722 0.598778 10.6274L22.6784 1.8418C22.7786 1.79924 22.8846 1.77467 22.9915 1.76808C23.0298 1.7658 23.0681 1.7658 23.1063 1.76796C23.3277 1.78113 23.5452 1.87132 23.7149 2.03776C23.7325 2.05498 23.7492 2.07259 23.7651 2.09096C23.9057 2.25157 23.9829 2.4474 23.9975 2.6469C24.001 2.69706 24.0008 2.74785 23.9963 2.79865C23.9933 2.83487 23.9881 2.87097 23.9808 2.90682L20.2538 22.4616C20.1939 22.7757 19.9801 23.0387 19.6847 23.1611C19.5676 23.2098 19.4438 23.2337 19.3207 23.2337ZM13.2826 17.0401L18.658 20.6862L21.5579 5.47044L11.0842 15.5488L13.2573 17.023C13.266 17.0284 13.2744 17.0343 13.2826 17.0401ZM8.80782 16.2293L9.52754 18.9564L11.0782 17.8406L9.04773 16.4632C8.95336 16.3994 8.87255 16.3199 8.80782 16.2293ZM3.56393 11.4924L7.55116 13.0169C7.83679 13.1261 8.05238 13.3662 8.1304 13.6619L8.63606 15.5782C8.65924 15.3572 8.75943 15.1492 8.9222 14.9925L18.9022 5.38937L3.56393 11.4924Z"/>
</g>
<defs>
<clipPath id="clip0_25_132">
<rect width="24" height="24" transform="translate(0 0.5)"/>
</clipPath>
</defs>
</svg>
