<svg width="32" height="18" viewBox="0 0 32 18" fill="none" xmlns="http://www.w3.org/2000/svg">
<path d="M31.7885 9.51271L24.5159 16.7853C24.2547 17.0904 23.7956 17.1259 23.4905 16.8646C23.1855 16.6034 23.1499 16.1443 23.4112 15.8392C23.4356 15.8108 23.4621 15.7842 23.4905 15.7599L29.5195 9.72364L0.727237 9.72364C0.325619 9.72364 0 9.39802 0 8.99634C0 8.59466 0.325619 8.2691 0.727237 8.2691L29.5195 8.2691L23.4905 2.24015C23.1855 1.9789 23.1499 1.51978 23.4112 1.21473C23.6725 0.909668 24.1316 0.874107 24.4366 1.13542C24.4651 1.15979 24.4916 1.18629 24.5159 1.21473L31.7886 8.48735C32.0705 8.77091 32.0705 9.22902 31.7885 9.51271Z" fill="black"/>
</svg>
