<?xml version="1.0" encoding="utf-8"?><svg width="24" height="25" xmlns="http://www.w3.org/2000/svg" viewBox="0 0 24 25"><g clip-path="url(#eclip0_25_135)"><path d="M20.434 3.985A11.894 11.894 0 0011.988.5 11.956 11.956 0 003.53 3.982C1.256 6.232.003 9.222 0 12.39v.006c0 1.917.504 3.851 1.46 5.617L.033 24.5l6.563-1.493a12.012 12.012 0 005.387 1.28h.005c3.184 0 6.189-1.237 8.458-3.482 2.276-2.252 3.53-5.237 3.53-8.407.002-3.147-1.256-6.135-3.542-8.413zm-8.446 18.43h-.004c-1.68-.002-3.344-.423-4.813-1.22l-.31-.17-4.364.993.948-4.308-.183-.315c-.909-1.567-1.389-3.296-1.389-5.002.004-5.522 4.54-10.02 10.115-10.02a10.034 10.034 0 017.124 2.94c1.93 1.923 2.993 4.439 2.992 7.085-.003 5.523-4.54 10.016-10.116 10.016z"/><path d="M8.726 7.15H8.2c-.183 0-.48.068-.73.342-.252.273-.96.935-.96 2.28 0 1.344.982 2.643 1.12 2.826.136.182 1.896 3.03 4.683 4.125 2.317.91 2.788.73 3.29.684.504-.045 1.623-.66 1.852-1.299.228-.638.228-1.185.16-1.3-.069-.113-.252-.182-.526-.318-.274-.137-1.618-.81-1.87-.9-.25-.092-.434-.137-.617.136-.182.273-.721.906-.881 1.088-.16.182-.32.205-.594.069-.275-.137-1.149-.431-2.196-1.362-.815-.725-1.381-1.649-1.541-1.922-.16-.274-.017-.421.12-.558.123-.122.29-.29.427-.45.137-.159.176-.273.268-.455.09-.182.045-.342-.023-.479-.07-.136-.595-1.488-.84-2.028h.001c-.205-.456-.422-.471-.617-.48z"/></g><defs><clipPath id="eclip0_25_135"><path fill="#fff" transform="translate(0 .5)" d="M0 0h24v24H0z"/></clipPath></defs></svg>