<?xml version="1.0" encoding="utf-8"?><svg width="24" height="25" xmlns="http://www.w3.org/2000/svg" viewBox="0 0 24 25"><path d="M12.236 24.5h-.239a83.412 83.412 0 01-5.31-.146c-1.55-.095-2.964-.63-4.09-1.55-1.088-.886-1.83-2.084-2.208-3.562-.328-1.286-.345-2.549-.362-3.77-.012-.876-.024-1.914-.027-2.97.003-1.06.015-2.098.027-2.974.017-1.221.034-2.484.362-3.77.377-1.477 1.12-2.676 2.207-3.563C3.723 1.276 5.138.741 6.688.647 8.378.544 10.117.496 12.002.5c1.882-.004 3.62.044 5.31.147 1.55.094 2.964.63 4.091 1.548 1.088.887 1.83 2.086 2.207 3.563.328 1.286.345 2.549.362 3.77.012.876.025 1.914.027 2.97v.004a258.856 258.856 0 01-.027 2.97c-.017 1.221-.034 2.484-.362 3.77-.377 1.477-1.12 2.676-2.207 3.563-1.127.919-2.541 1.454-4.091 1.549a82.996 82.996 0 01-5.076.146zm-.239-1.875a81.79 81.79 0 005.2-.143c1.173-.071 2.189-.451 3.021-1.13.77-.628 1.3-1.494 1.575-2.573.273-1.071.289-2.22.304-3.332.012-.87.024-1.901.027-2.947a264.993 264.993 0 00-.027-2.947c-.015-1.111-.03-2.26-.304-3.332-.276-1.08-.805-1.945-1.575-2.573-.832-.678-1.848-1.059-3.02-1.13-1.65-.1-3.35-.147-5.196-.143-1.85-.004-3.55.043-5.2.143-1.173.071-2.189.452-3.021 1.13-.77.628-1.3 1.493-1.575 2.573-.273 1.071-.289 2.22-.304 3.332-.012.871-.024 1.903-.027 2.95.003 1.041.015 2.073.027 2.944.015 1.111.03 2.26.304 3.332.276 1.08.806 1.945 1.575 2.573.832.678 1.848 1.059 3.02 1.13 1.651.1 3.35.147 5.196.143zm-.044-4.266a5.866 5.866 0 01-5.86-5.859c0-3.23 2.629-5.86 5.86-5.86 3.23 0 5.859 2.63 5.859 5.86 0 3.231-2.629 5.86-5.86 5.86zm0-9.843A3.99 3.99 0 007.968 12.5a3.989 3.989 0 003.985 3.984 3.989 3.989 0 003.984-3.984 3.989 3.989 0 00-3.984-3.984zm6.515-3.75a1.406 1.406 0 100 2.812 1.406 1.406 0 000-2.812z"/></svg>