<?xml version="1.0" encoding="utf-8"?><svg width="24" height="25" xmlns="http://www.w3.org/2000/svg" viewBox="0 0 24 25"><g clip-path="url(#dclip0_25_132)"><path d="M19.32 23.234a.95.95 0 01-.533-.164l-6.034-4.093-3.237 2.328a.951.951 0 01-1.473-.528l-1.626-6.159-5.806-2.22a.95.95 0 01-.012-1.77l22.08-8.786a.95.95 0 011.302 1.065l-3.727 19.555a.95.95 0 01-.933.772zm-6.037-6.194l5.375 3.646 2.9-15.216L11.084 15.55l2.173 1.474a.509.509 0 01.026.017zm-4.475-.81l.72 2.726 1.55-1.115-2.03-1.378a.946.946 0 01-.24-.234zm-5.244-4.738l3.987 1.525a.95.95 0 01.58.645l.505 1.916a.95.95 0 01.286-.585l9.98-9.604-15.338 6.103z"/></g><defs><clipPath id="dclip0_25_132"><path transform="translate(0 .5)" d="M0 0h24v24H0z"/></clipPath></defs></svg>