<?xml version="1.0" encoding="utf-8"?><svg viewBox="0 0 32 32" xmlns="http://www.w3.org/2000/svg" xmlns:xlink="http://www.w3.org/1999/xlink"><style>:root>svg{display:none}:root>svg:target{display:block}</style><svg fill="none" viewBox="0 0 32 18" id="icon-arr-right" xmlns="http://www.w3.org/2000/svg"><path d="M31.788 9.513l-7.272 7.272a.727.727 0 11-1.025-1.025l6.029-6.036H.727a.727.727 0 010-1.455H29.52L23.49 2.24a.727.727 0 111.026-1.025l7.273 7.272a.727.727 0 010 1.026z" fill="#000"/></svg><svg fill="none" viewBox="0 0 17 32" id="icon-arr-top" xmlns="http://www.w3.org/2000/svg"><path d="M9.473.211l7.273 7.273A.727.727 0 1115.72 8.51L9.684 2.481v28.792a.727.727 0 01-1.454 0V2.48L2.2 8.509a.727.727 0 11-1.025-1.025L8.448.211a.727.727 0 011.025 0z" fill="#fff"/></svg><svg viewBox="0 0 24 25" id="icon-inst" xmlns="http://www.w3.org/2000/svg"><path d="M12.236 24.5h-.239a83.412 83.412 0 01-5.31-.146c-1.55-.095-2.964-.63-4.09-1.55-1.088-.886-1.83-2.084-2.208-3.562-.328-1.286-.345-2.549-.362-3.77-.012-.876-.024-1.914-.027-2.97.003-1.06.015-2.098.027-2.974.017-1.221.034-2.484.362-3.77.377-1.477 1.12-2.676 2.207-3.563C3.723 1.276 5.138.741 6.688.647 8.378.544 10.117.496 12.002.5c1.882-.004 3.62.044 5.31.147 1.55.094 2.964.63 4.091 1.548 1.088.887 1.83 2.086 2.207 3.563.328 1.286.345 2.549.362 3.77.012.876.025 1.914.027 2.97v.004a258.856 258.856 0 01-.027 2.97c-.017 1.221-.034 2.484-.362 3.77-.377 1.477-1.12 2.676-2.207 3.563-1.127.919-2.541 1.454-4.091 1.549a82.996 82.996 0 01-5.076.146zm-.239-1.875a81.79 81.79 0 005.2-.143c1.173-.071 2.189-.451 3.021-1.13.77-.628 1.3-1.494 1.575-2.573.273-1.071.289-2.22.304-3.332.012-.87.024-1.901.027-2.947a264.993 264.993 0 00-.027-2.947c-.015-1.111-.03-2.26-.304-3.332-.276-1.08-.805-1.945-1.575-2.573-.832-.678-1.848-1.059-3.02-1.13-1.65-.1-3.35-.147-5.196-.143-1.85-.004-3.55.043-5.2.143-1.173.071-2.189.452-3.021 1.13-.77.628-1.3 1.493-1.575 2.573-.273 1.071-.289 2.22-.304 3.332-.012.871-.024 1.903-.027 2.95.003 1.041.015 2.073.027 2.944.015 1.111.03 2.26.304 3.332.276 1.08.806 1.945 1.575 2.573.832.678 1.848 1.059 3.02 1.13 1.651.1 3.35.147 5.196.143zm-.044-4.266a5.866 5.866 0 01-5.86-5.859c0-3.23 2.629-5.86 5.86-5.86 3.23 0 5.859 2.63 5.859 5.86 0 3.231-2.629 5.86-5.86 5.86zm0-9.843A3.99 3.99 0 007.968 12.5a3.989 3.989 0 003.985 3.984 3.989 3.989 0 003.984-3.984 3.989 3.989 0 00-3.984-3.984zm6.515-3.75a1.406 1.406 0 100 2.812 1.406 1.406 0 000-2.812z"/></svg><svg viewBox="0 0 24 25" id="icon-tg" xmlns="http://www.w3.org/2000/svg"><g clip-path="url(#dclip0_25_132)"><path d="M19.32 23.234a.95.95 0 01-.533-.164l-6.034-4.093-3.237 2.328a.951.951 0 01-1.473-.528l-1.626-6.159-5.806-2.22a.95.95 0 01-.012-1.77l22.08-8.786a.95.95 0 011.302 1.065l-3.727 19.555a.95.95 0 01-.933.772zm-6.037-6.194l5.375 3.646 2.9-15.216L11.084 15.55l2.173 1.474a.509.509 0 01.026.017zm-4.475-.81l.72 2.726 1.55-1.115-2.03-1.378a.946.946 0 01-.24-.234zm-5.244-4.738l3.987 1.525a.95.95 0 01.58.645l.505 1.916a.95.95 0 01.286-.585l9.98-9.604-15.338 6.103z"/></g><defs><clipPath id="dclip0_25_132"><path transform="translate(0 .5)" d="M0 0h24v24H0z"/></clipPath></defs></svg><svg viewBox="0 0 24 25" id="icon-wa" xmlns="http://www.w3.org/2000/svg"><g clip-path="url(#eclip0_25_135)"><path d="M20.434 3.985A11.894 11.894 0 0011.988.5 11.956 11.956 0 003.53 3.982C1.256 6.232.003 9.222 0 12.39v.006c0 1.917.504 3.851 1.46 5.617L.033 24.5l6.563-1.493a12.012 12.012 0 005.387 1.28h.005c3.184 0 6.189-1.237 8.458-3.482 2.276-2.252 3.53-5.237 3.53-8.407.002-3.147-1.256-6.135-3.542-8.413zm-8.446 18.43h-.004c-1.68-.002-3.344-.423-4.813-1.22l-.31-.17-4.364.993.948-4.308-.183-.315c-.909-1.567-1.389-3.296-1.389-5.002.004-5.522 4.54-10.02 10.115-10.02a10.034 10.034 0 017.124 2.94c1.93 1.923 2.993 4.439 2.992 7.085-.003 5.523-4.54 10.016-10.116 10.016z"/><path d="M8.726 7.15H8.2c-.183 0-.48.068-.73.342-.252.273-.96.935-.96 2.28 0 1.344.982 2.643 1.12 2.826.136.182 1.896 3.03 4.683 4.125 2.317.91 2.788.73 3.29.684.504-.045 1.623-.66 1.852-1.299.228-.638.228-1.185.16-1.3-.069-.113-.252-.182-.526-.318-.274-.137-1.618-.81-1.87-.9-.25-.092-.434-.137-.617.136-.182.273-.721.906-.881 1.088-.16.182-.32.205-.594.069-.275-.137-1.149-.431-2.196-1.362-.815-.725-1.381-1.649-1.541-1.922-.16-.274-.017-.421.12-.558.123-.122.29-.29.427-.45.137-.159.176-.273.268-.455.09-.182.045-.342-.023-.479-.07-.136-.595-1.488-.84-2.028h.001c-.205-.456-.422-.471-.617-.48z"/></g><defs><clipPath id="eclip0_25_135"><path fill="#fff" transform="translate(0 .5)" d="M0 0h24v24H0z"/></clipPath></defs></svg></svg>